<?xml version="1.0" encoding="utf-8"?>
<!-- Generator: Adobe Illustrator 22.0.1, SVG Export Plug-In . SVG Version: 6.00 Build 0)  -->
<svg version="1.1" id="Layer_1" xmlns="http://www.w3.org/2000/svg" xmlns:xlink="http://www.w3.org/1999/xlink" x="0px" y="0px"
	 viewBox="0 0 569.3 300.6" style="enable-background:new 0 0 569.3 300.6;" xml:space="preserve">
<style type="text/css">
	.st0{fill:url(#SVGID_1_);}
	.st1{fill:#FFFFFF;}
	.st2{fill:#999999;}
	.st3{fill:url(#SVGID_2_);}
	.st4{fill:url(#SVGID_3_);}
	.st5{fill:url(#SVGID_4_);}
	.st6{fill:url(#SVGID_5_);}
	.st7{fill:url(#SVGID_6_);}
	.st8{fill:url(#SVGID_7_);}
</style>
<g>
	<g>
		
			<linearGradient id="SVGID_1_" gradientUnits="userSpaceOnUse" x1="59.2823" y1="54.7676" x2="222.627" y2="196.0386" gradientTransform="matrix(1 0 0 -1 0 302)">
			<stop  offset="0" style="stop-color:#006AB6"/>
			<stop  offset="0.9995" style="stop-color:#06BFE8"/>
		</linearGradient>
		<path class="st0" d="M257.7,59.4c-28.6-20.9-60.2-28.7-95.1-21.2c-27.1,5.8-49.3,19.9-66.3,41.9c-38.1,49.4-28.1,113.4,7.7,149.7
			c21.6,21.9,47.8,33.9,78.6,34.8s57.9-9.3,81.2-29.7c-0.9,1-1.7,1.9-2.6,2.9c-35.2,36-88.7,47.6-135.4,29.3
			c-54-21.2-86.2-76-78.5-133.8c2-14.7,6.4-28.7,13.5-41.7c18.5-33.9,46.7-55.2,84.2-63.7c26-5.9,51.4-3.2,75.9,7.2
			c10.7,4.6,20.7,10.5,29.7,17.9C252.9,55,255.3,57.2,257.7,59.4z"/>
		<path class="st1" d="M251.7,47.7c-32.1-23.5-67.6-32.1-106.8-23.6c-30.5,6.6-55.5,22.6-74.6,47.4c-43,55.7-31.9,127.8,8.2,168.6
			c24.2,24.7,53.6,38.1,88.2,39s65.1-10.6,91.3-33.7c-1,1.1-1.9,2.2-2.9,3.2c-39.6,40.7-99.8,53.9-152.3,33.4
			C42,258.4,6,196.7,14.8,131.6c2.3-16.6,7.3-32.3,15.3-47.1c20.9-38.3,52.6-62.3,94.8-72c29.3-6.7,57.8-3.8,85.3,7.9
			c12,5.1,23.2,11.7,33.3,20.1C246.4,42.8,249,45.3,251.7,47.7z"/>
	</g>
	<path class="st1" d="M292.7,220.8c0,0-13-11.5-30,1.6C262.8,222.4,272,215.1,292.7,220.8z"/>
	<path class="st1" d="M152.1,147.3c3.1,5.1,7.1,9.1,12.1,12s10.4,4.3,16.3,4.3c4.6,0,8.8-0.6,12.5-1.8s7.1-2.8,10-4.9
		c3-2.1,5.5-4.4,7.7-7.1v19.5c-4,3.3-8.3,5.9-13.1,7.6c-4.8,1.8-10.7,2.6-17.8,2.6s-13.7-1.2-19.9-3.6c-6.1-2.4-11.5-5.9-16-10.4
		s-8-9.8-10.6-16c-2.5-6.1-3.8-12.8-3.8-20.1c0-7.4,1.3-14.1,3.8-20.3c2.5-6.1,6.1-11.4,10.6-15.9s9.8-7.9,16-10.4
		c6.1-2.4,12.8-3.7,19.9-3.7c7.1,0,13,0.9,17.8,2.6c4.7,1.8,9.1,4.3,13.1,7.7v19.4c-2.2-2.6-4.8-4.9-7.7-7c-3-2.1-6.3-3.7-10-4.9
		c-3.7-1.2-7.9-1.8-12.5-1.8c-5.9,0-11.3,1.4-16.3,4.2c-5,2.8-9,6.8-12.1,11.9s-4.6,11.1-4.6,18.1
		C147.4,136.3,149,142.2,152.1,147.3z"/>
	<path class="st1" d="M238.4,97.3v65.9h23.8c8.1,0,14.7,6.6,14.7,14.7l0,0h-54.8V81l0,0C231.1,81,238.4,88.3,238.4,97.3z"/>
	<path class="st1" d="M304.7,81v96.9h-16.1V81H304.7z M298.7,81h48.8l0,0c0,7.9-6.4,14.4-14.4,14.4h-34.5V81H298.7z M298.7,118.9h39
		c3.9,0,7.1,3.2,7.1,7.1l0,0c0,3.9-3.2,7.1-7.1,7.1h-39V118.9z M298.7,163.5h34.5c7.9,0,14.4,6.4,14.4,14.4l0,0h-48.8v-14.4H298.7z"
		/>
	<path class="st1" d="M352.8,230c0-0.2,0-0.4-0.1-0.7c-2.8-0.7-11-5.3-12.4-6s-2.7-1.1-2.9-0.8l0,0c-0.2,1.4-1.3,2.9-2.3,3.7
		c-1.6,1.4-4.1,1.3-6,0.8c-7.7-2-12.9-8.6-18.5-13.6c-7.9-7.1-17.7-13.3-28.4-15c-7-1.1-14.2,0.3-20.4,3.9c-4.3,2.5-7.9,6-10.4,10.3
		c-2,3.4-3.4,7.1-4.5,10.9c-0.1,0.3-0.7,4.9-0.8,4.9c4.1-1.7,8.7-2.7,13.1-2.7c5.9,0.1,11.9,2.2,16.9,5.4c3.4,2.2,6.7,4.8,9.8,7.3
		c2.4,2,4.9,3.9,7.4,5.7c9,6.4,19.2,10.1,30.1,11.7c3.6,0.5,7.2,0.7,10.8,0.3c9.1-0.9,16.7-7,17.8-16.5c0.2-1.7-0.3-3.4-0.3-5.2
		C351.5,232.8,352.5,231.6,352.8,230z"/>
	<path class="st2" d="M339,226.1l10,5c0.3,0.1,0.2,2.1,0.2,2.3c0,1.9-0.1,3.9-0.5,5.8c-0.8,4.3-3.1,8.3-6.9,10.7
		c-2,1.3-4.6,2.3-6.9,2.7c-11.8,1.9-23.1-1.8-33.5-7.2c-7.5-3.9-13.4-9.3-20-14.4c-3.4-2.6-7.2-4.8-11.3-6.3
		c-3.9-1.4-8-2.3-12.2-2.4c-0.8,0-7-0.1-7.2,0.5c0,0,9.8-30.4,40.3-18.1c4.4,1.8,8.7,3.9,12.4,6.9c3.8,3.1,7.1,6.7,10.8,9.9
		c3,2.6,6.2,5.1,9.7,7.1c2.4,1.3,5.1,2.6,7.9,2.6C335.2,231.3,337.5,228.8,339,226.1z"/>
	<path class="st1" d="M270.1,220.7c0,0,13.4-6.7,37.2,6.6c7.3,4.1,15.1,7.5,23.5,7.9c2.4,0.1,4.7,0,7-0.6c-1.9,0.4-3.7,1.5-5.6,1.9
		c-5.7,1.2-11.5,0.5-16.9-1.5c-8.2-3.1-15.4-8.4-23.5-11.7c-1.8-0.7-3.6-1.2-5.4-1.7C286.5,221.6,278.9,219.3,270.1,220.7z"/>
	<path class="st1" d="M286.4,229.6c0.2,0.1,1.1-0.1,1.3-0.1c1.2,0.1,2.5,0.4,3.7,0.8c4.5,1.6,8,5,12,7.6c7.1,4.5,15.8,5.7,24,6.8
		c2.1,0.3,4.3,0.4,6.3-0.1c-1.6,0.4-3.3,1.5-5,2c-4.5,1.3-9.1,1.5-13.6,0.3c-4.2-1.1-8.4-2.6-12.1-5s-6.9-5.5-10.4-8.3
		C290.6,232.1,288.6,230.7,286.4,229.6z"/>
	
		<linearGradient id="SVGID_2_" gradientUnits="userSpaceOnUse" x1="570.1685" y1="1660.0525" x2="587.4821" y2="1660.0525" gradientTransform="matrix(0.9387 -0.3447 -0.3447 -0.9387 377.4408 1978.2717)">
		<stop  offset="0" style="stop-color:#006AB6"/>
		<stop  offset="0.9995" style="stop-color:#06BFE8"/>
	</linearGradient>
	<polygon class="st3" points="340.3,214.2 339.1,219.8 354.7,227.5 358.6,222.8 	"/>
	<path class="st1" d="M418.7,80.7l-61.2,139l-13.2-6l61.5-138.9c1.6-3.5,5.6-5.1,9.1-3.7l0,0C418.7,72.5,420.4,76.9,418.7,80.7z"/>
	<path class="st1" d="M457.3,177.9L457.3,177.9c-11.3,0-21.5-6.6-26.1-16.9l-5.6-12.5l-0.3-4l-9.1-21.3l-13.6-31.9l7.2-15.6
		L457.3,177.9z"/>
	<polygon class="st1" points="387.7,139.1 432.7,139.1 435.7,153 384.5,153 	"/>
	<path class="st1" d="M555.8,81v101.7l-70.7-69.9v49c0,8.9-7.2,16.1-16.1,16.1l0,0V76.2l70.7,69.9V97C539.8,88.2,547,81,555.8,81
		L555.8,81z"/>
	<g>
		
			<linearGradient id="SVGID_3_" gradientUnits="userSpaceOnUse" x1="483.7435" y1="93.5181" x2="632.4642" y2="110.3544" gradientTransform="matrix(1 0 0 -1 0 302)">
			<stop  offset="0" style="stop-color:#006AB6"/>
			<stop  offset="0.9995" style="stop-color:#06BFE8"/>
		</linearGradient>
		<path class="st4" d="M379.5,231.2c1.1,1.2,2.2,2.1,3.5,2.8s2.7,1,4.3,1c1.9,0,3.5-0.5,4.7-1.6c1.2-1,1.8-2.4,1.8-4.1
			c0-1.5-0.4-2.7-1.1-3.7c-0.7-0.9-1.8-1.7-3.1-2.4c-1.4-0.7-2.9-1.3-4.7-1.9c-1-0.4-2.2-0.8-3.5-1.5c-1.3-0.6-2.5-1.4-3.7-2.3
			c-1.2-0.9-2.1-2.1-2.9-3.5s-1.1-3-1.1-5c0-2.2,0.6-4.2,1.7-5.9c1.2-1.7,2.7-3,4.7-4s4.2-1.4,6.7-1.4s4.6,0.4,6.5,1.3
			c1.8,0.9,3.4,2,4.7,3.4c1.3,1.4,2.3,2.8,2.9,4.3l-5.7,3.2c-0.6-1-1.2-2-2-2.9s-1.7-1.6-2.8-2.2c-1.1-0.5-2.3-0.8-3.7-0.8
			c-2,0-3.4,0.5-4.3,1.3c-0.9,0.9-1.4,1.9-1.4,3.1c0,1.1,0.3,2,1,2.9s1.7,1.7,3.1,2.4c1.4,0.8,3.2,1.5,5.4,2.3
			c1.3,0.4,2.5,1,3.8,1.7s2.4,1.5,3.4,2.5s1.8,2.2,2.5,3.6c0.6,1.4,1,3,1,4.8c0,2-0.4,3.7-1.2,5.3c-0.8,1.6-1.8,2.9-3.1,3.9
			c-1.3,1.1-2.8,1.9-4.5,2.5s-3.4,0.9-5.2,0.9c-2.4,0-4.7-0.5-6.8-1.5c-2.1-1-3.9-2.3-5.5-3.9c-1.6-1.6-2.8-3.4-3.7-5.3l5.3-3.7
			C377.5,228.6,378.5,230,379.5,231.2z"/>
		
			<linearGradient id="SVGID_4_" gradientUnits="userSpaceOnUse" x1="480.839" y1="89.4308" x2="629.5593" y2="106.2671" gradientTransform="matrix(1 0 0 -1 0 302)">
			<stop  offset="0" style="stop-color:#006AB6"/>
			<stop  offset="0.9995" style="stop-color:#06BFE8"/>
		</linearGradient>
		<path class="st5" d="M410,240.5h-7.3l5.7-44l17.2,28.4l17.2-28.4l5.7,44h-7.3l-2.9-25.5l-12.8,21.6L412.9,215L410,240.5z"/>
		
			<linearGradient id="SVGID_5_" gradientUnits="userSpaceOnUse" x1="482.5122" y1="83.5617" x2="631.2321" y2="100.3979" gradientTransform="matrix(1 0 0 -1 0 302)">
			<stop  offset="0" style="stop-color:#006AB6"/>
			<stop  offset="0.9995" style="stop-color:#06BFE8"/>
		</linearGradient>
		<path class="st6" d="M466,225.8l-0.1,1.6l-5.8,13.1h-8l20.5-44.2l20.5,44.2h-8l-5.7-12.8l-0.1-1.7l-6.7-15.6L466,225.8z
			 M463,223.7h19.5l1.3,6h-22.2L463,223.7z"/>
		
			<linearGradient id="SVGID_6_" gradientUnits="userSpaceOnUse" x1="482.0145" y1="79.0441" x2="630.735" y2="95.8804" gradientTransform="matrix(1 0 0 -1 0 302)">
			<stop  offset="0" style="stop-color:#006AB6"/>
			<stop  offset="0.9995" style="stop-color:#06BFE8"/>
		</linearGradient>
		<path class="st7" d="M503.9,198.6v41.9h-7.1v-41.9H503.9z M501.1,198.6h8.7c3.1,0,5.7,0.5,8,1.6c2.2,1.1,4,2.6,5.2,4.5
			c1.3,1.9,1.9,4.2,1.9,6.9c0,2.6-0.6,4.9-1.9,6.9c-1.3,2-3,3.5-5.2,4.5c-2.2,1.1-4.9,1.6-8,1.6h-8.7v-5.9h8.4
			c1.6,0,3.1-0.3,4.3-0.8s2.1-1.3,2.8-2.4c0.7-1.1,1-2.3,1-3.8s-0.3-2.8-1-3.8s-1.6-1.8-2.8-2.4c-1.2-0.6-2.6-0.8-4.3-0.8h-8.4
			L501.1,198.6L501.1,198.6z M513.2,220.5l14.2,20h-8.6l-13.3-20H513.2z"/>
		
			<linearGradient id="SVGID_7_" gradientUnits="userSpaceOnUse" x1="480.6495" y1="76.2292" x2="629.3698" y2="93.0654" gradientTransform="matrix(1 0 0 -1 0 302)">
			<stop  offset="0" style="stop-color:#006AB6"/>
			<stop  offset="0.9995" style="stop-color:#06BFE8"/>
		</linearGradient>
		<path class="st8" d="M526.6,198.6h29.2v6.5h-11.1v35.4h-7.1v-35.4h-11.1L526.6,198.6L526.6,198.6z"/>
	</g>
</g>
</svg>
